; NON-PLATED HOLES START AT T1
; THROUGH (PLATED) HOLES START AT T100
M48
INCH
T100C0.059055
T101C0.030000
T102C0.086614
T103C0.042000
T104C0.038000
T105C0.015748
T106C0.035000
%
T100
X005210Y005209
X006198Y006207
X006193Y010139
X005218Y008157
X001293Y009149
X007198Y008170
X005215Y011117
X001275Y007170
T101
X009252Y016044
X009251Y013014
X009252Y017046
X009251Y014016
T102
X003243Y011092
X003255Y005190
T103
X010754Y004847
X009754Y004847
X011754Y004847
T104
X021079Y020038
X015573Y020031
X024079Y020038
X020619Y005957
X020619Y003957
X014125Y001047
X009572Y020031
X011573Y020031
X025878Y003952
X018125Y001047
X014573Y020031
X025878Y004952
X012573Y020031
X019079Y020038
X024094Y001039
X019313Y005957
X016573Y020031
X025079Y020038
X022094Y001039
X023239Y003957
X019313Y004957
X012125Y001047
X018079Y020038
X019313Y003957
X021924Y005947
X013573Y020031
X007572Y020031
X025878Y005952
X015125Y001047
X020094Y001039
X025094Y001039
X023239Y005957
X021924Y003947
X023239Y004957
X017125Y001047
X013125Y001047
X024563Y003943
X011125Y001047
X023094Y001039
X021094Y001039
X021924Y004947
X024563Y005943
X010573Y020031
X020079Y020038
X020619Y004957
X016125Y001047
X008572Y020031
X024563Y004943
X022079Y020038
X023079Y020038
T105
X014509Y007181
T106
X010327Y013040
X009243Y009136
X016110Y003047
X009243Y008136
X001897Y001255
X012243Y011136
X012243Y009136
X009243Y010136
X016110Y007047
X010327Y017040
X009243Y011136
X012243Y008136
X004456Y001255
X012243Y010136
X001897Y003027
X004456Y003027
T00
M30
