; NON-PLATED HOLES START AT T1
; THROUGH (PLATED) HOLES START AT T100
M48
INCH
T100C0.042000
T101C0.086000
T102C0.038000
T103C0.015748
T104C0.035000
T105C0.030000
%
T100
X011754Y004847
X009754Y004847
X010754Y004847
T101
X003243Y005226
X003243Y011131
T102
X021924Y005947
X025094Y001039
X025079Y020038
X022079Y020038
X020619Y005957
X015125Y001047
X013125Y001047
X025878Y004952
X018079Y020038
X015573Y020031
X023239Y004957
X023094Y001039
X014125Y001047
X023239Y005957
X007572Y020031
X012573Y020031
X011125Y001047
X012125Y001047
X017125Y001047
X021094Y001039
X018125Y001047
X022094Y001039
X024563Y004943
X023079Y020038
X024094Y001039
X020619Y004957
X007198Y008170
X019079Y020038
X019313Y005957
X021924Y004947
X024563Y003943
X024563Y005943
X020619Y003957
X011573Y020031
X025878Y003952
X021079Y020038
X010573Y020031
X025878Y005952
X014573Y020031
X019313Y004957
X016573Y020031
X024079Y020038
X020079Y020038
X009572Y020031
X021924Y003947
X016125Y001047
X023239Y003957
X013573Y020031
X019313Y003957
X008572Y020031
X020094Y001039
T103
X014510Y007070
T104
X009243Y008136
X004456Y003027
X006196Y010147
X016110Y007047
X004456Y001255
X005212Y011131
X001897Y003027
X009243Y009136
X001275Y007194
X005212Y008179
X010327Y017040
X012243Y011136
X009243Y010136
X001897Y001255
X001275Y009163
X012243Y009136
X006196Y006210
X016110Y003047
X009243Y011136
X012243Y010136
X010327Y013040
X012243Y008136
X005212Y005226
T105
X009252Y017046
X009251Y014016
X009251Y013014
X009252Y016044
T00
M30
