G04 MADE WITH FRITZING*
G04 WWW.FRITZING.ORG*
G04 DOUBLE SIDED*
G04 HOLES PLATED*
G04 CONTOUR ON CENTER OF CONTOUR VECTOR*
%ASAXBY*%
%FSLAX23Y23*%
%MOIN*%
%OFA0B0*%
%SFA1.0B1.0*%
%ADD10C,0.078000*%
%ADD11C,0.075000*%
%ADD12C,0.126000*%
%ADD13C,0.070000*%
%ADD14C,0.082000*%
%ADD15C,0.039370*%
%ADD16R,0.078000X0.078000*%
%ADD17R,0.075000X0.075000*%
%ADD18R,0.082000X0.082000*%
%ADD19C,0.024000*%
%ADD20C,0.048000*%
%LNCOPPER1*%
G90*
G70*
G54D10*
X1808Y2004D03*
X1908Y2004D03*
X2008Y2004D03*
X2108Y2004D03*
X2208Y2004D03*
X2308Y2004D03*
X2408Y2004D03*
X2508Y2004D03*
X2009Y104D03*
X2109Y104D03*
X2209Y104D03*
X2309Y104D03*
X2409Y104D03*
X2509Y104D03*
X1113Y105D03*
X1213Y105D03*
X1313Y105D03*
X1413Y105D03*
X1513Y105D03*
X1613Y105D03*
X1713Y105D03*
X1813Y105D03*
X757Y2003D03*
X857Y2003D03*
X957Y2003D03*
X1057Y2003D03*
X1157Y2003D03*
X1257Y2003D03*
X1357Y2003D03*
X1457Y2003D03*
X1557Y2003D03*
X1657Y2003D03*
X2324Y596D03*
X2324Y496D03*
X2324Y396D03*
X2192Y595D03*
X2192Y495D03*
X2192Y395D03*
X2062Y596D03*
X2062Y496D03*
X2062Y396D03*
X1931Y596D03*
X1931Y496D03*
X1931Y396D03*
G54D11*
X521Y1113D03*
X620Y1015D03*
X521Y818D03*
X620Y621D03*
X521Y523D03*
X128Y916D03*
G54D12*
X324Y523D03*
X324Y1113D03*
G54D11*
X128Y719D03*
X446Y126D03*
X190Y126D03*
X446Y303D03*
X190Y303D03*
G54D10*
X720Y817D03*
G54D11*
X1611Y705D03*
X1611Y305D03*
G54D13*
X925Y1604D03*
X925Y1705D03*
X925Y1301D03*
X925Y1402D03*
G54D11*
X1224Y814D03*
X924Y814D03*
X1224Y914D03*
X924Y914D03*
X1224Y1014D03*
X924Y1014D03*
X1224Y1114D03*
X924Y1114D03*
G54D14*
X1175Y485D03*
X1075Y485D03*
X975Y485D03*
G54D11*
X1033Y1304D03*
X1033Y1704D03*
G54D15*
X1451Y707D03*
G54D10*
X2588Y595D03*
X2588Y495D03*
X2588Y395D03*
X2456Y594D03*
X2456Y494D03*
X2456Y394D03*
G54D16*
X2324Y596D03*
X2192Y595D03*
X2062Y596D03*
X1931Y596D03*
G54D17*
X1224Y814D03*
G54D18*
X1175Y485D03*
G54D16*
X2588Y595D03*
X2456Y594D03*
G54D19*
X417Y126D02*
X218Y126D01*
D02*
X417Y303D02*
X218Y303D01*
D02*
X975Y187D02*
X1313Y187D01*
D02*
X975Y126D02*
X975Y187D01*
D02*
X474Y126D02*
X975Y126D01*
D02*
X1313Y187D02*
X1313Y135D01*
D02*
X1682Y105D02*
X1643Y105D01*
D02*
X521Y1085D02*
X521Y914D01*
D02*
X521Y914D02*
X896Y914D01*
D02*
X648Y1015D02*
X896Y1014D01*
D02*
X1033Y1275D02*
X1033Y1014D01*
D02*
X1033Y1014D02*
X953Y1014D01*
D02*
X1033Y1402D02*
X951Y1402D01*
D02*
X1033Y1333D02*
X1033Y1402D01*
D02*
X924Y1142D02*
X925Y1275D01*
D02*
X1033Y1604D02*
X951Y1604D01*
D02*
X1033Y1675D02*
X1033Y1604D01*
D02*
X925Y1819D02*
X925Y1731D01*
D02*
X1057Y1819D02*
X925Y1819D01*
D02*
X1057Y1973D02*
X1057Y1819D01*
D02*
X833Y1705D02*
X833Y1301D01*
D02*
X833Y1301D02*
X899Y1301D01*
D02*
X899Y1705D02*
X833Y1705D01*
D02*
X1224Y985D02*
X1224Y942D01*
D02*
X521Y707D02*
X1432Y707D01*
D02*
X521Y789D02*
X521Y707D01*
D02*
X1075Y621D02*
X648Y621D01*
D02*
X1075Y517D02*
X1075Y621D01*
D02*
X1582Y305D02*
X975Y305D01*
D02*
X975Y305D02*
X975Y453D01*
D02*
X1611Y676D02*
X1611Y485D01*
D02*
X1611Y485D02*
X1208Y485D01*
D02*
X324Y303D02*
X324Y469D01*
D02*
X218Y303D02*
X324Y303D01*
D02*
X324Y1167D02*
X324Y1301D01*
D02*
X324Y1301D02*
X899Y1301D01*
G54D20*
D02*
X148Y937D02*
X286Y1075D01*
D02*
X128Y888D02*
X128Y748D01*
D02*
X148Y699D02*
X286Y561D01*
G54D19*
D02*
X1713Y305D02*
X1640Y305D01*
D02*
X1713Y135D02*
X1713Y305D01*
D02*
X975Y303D02*
X975Y453D01*
D02*
X474Y303D02*
X975Y303D01*
D02*
X1611Y276D02*
X1612Y135D01*
D02*
X1713Y596D02*
X1901Y596D01*
D02*
X1713Y135D02*
X1713Y596D01*
D02*
X1961Y596D02*
X2032Y596D01*
D02*
X2092Y596D02*
X2162Y595D01*
D02*
X2223Y595D02*
X2294Y596D01*
D02*
X1939Y367D02*
X2002Y133D01*
D02*
X2067Y366D02*
X2105Y134D01*
D02*
X2194Y365D02*
X2208Y134D01*
D02*
X2322Y366D02*
X2311Y134D01*
D02*
X2308Y705D02*
X2308Y1974D01*
D02*
X1640Y705D02*
X2308Y705D01*
D02*
X2208Y814D02*
X2208Y1974D01*
D02*
X1253Y814D02*
X2208Y814D01*
D02*
X1253Y1014D02*
X2108Y1014D01*
D02*
X2108Y1014D02*
X2108Y1974D01*
D02*
X2008Y1114D02*
X2008Y1974D01*
D02*
X1253Y1114D02*
X2008Y1114D01*
D02*
X2354Y595D02*
X2426Y595D01*
D02*
X2486Y595D02*
X2558Y595D01*
D02*
X2452Y365D02*
X2414Y134D01*
D02*
X2580Y366D02*
X2517Y133D01*
D02*
X1931Y566D02*
X1931Y526D01*
D02*
X2062Y566D02*
X2062Y526D01*
D02*
X2192Y565D02*
X2192Y525D01*
D02*
X2324Y566D02*
X2324Y526D01*
D02*
X2456Y564D02*
X2456Y524D01*
D02*
X2588Y565D02*
X2588Y525D01*
D02*
X2558Y495D02*
X2486Y495D01*
D02*
X2426Y495D02*
X2354Y495D01*
D02*
X2294Y496D02*
X2223Y495D01*
D02*
X2162Y495D02*
X2092Y496D01*
D02*
X2032Y496D02*
X1961Y496D01*
D02*
X1125Y1604D02*
X951Y1604D01*
D02*
X953Y914D02*
X1125Y914D01*
D02*
X1125Y914D02*
X1125Y1604D01*
G04 End of Copper1*
M02*